<svg width="350" height="450" xmlns="http://www.w3.org/2000/svg">
  <defs>
    <linearGradient id="gradBook" x1="0%" y1="0%" x2="0%" y2="100%">
      <stop offset="0%" style="stop-color:#8b5a3c;stop-opacity:1" />
      <stop offset="100%" style="stop-color:#3d2817;stop-opacity:1" />
    </linearGradient>
  </defs>
  <rect width="350" height="450" fill="url(#gradBook)"/>
  
  <!-- Открытая книга -->
  <rect x="80" y="80" width="130" height="280" fill="#d4af37" rx="5"/>
  <line x1="145" y1="80" x2="145" y2="360" stroke="#b8941e" stroke-width="2"/>
  
  <!-- Текст на левой странице -->
  <line x1="95" y1="110" x2="130" y2="110" stroke="#3d2817" stroke-width="1" opacity="0.6"/>
  <line x1="95" y1="130" x2="135" y2="130" stroke="#3d2817" stroke-width="1" opacity="0.5"/>
  <line x1="95" y1="145" x2="135" y2="145" stroke="#3d2817" stroke-width="1" opacity="0.5"/>
  <line x1="95" y1="160" x2="132" y2="160" stroke="#3d2817" stroke-width="1" opacity="0.5"/>
  <line x1="95" y1="175" x2="128" y2="175" stroke="#3d2817" stroke-width="1" opacity="0.5"/>
  
  <!-- Текст на правой странице -->
  <line x1="155" y1="110" x2="190" y2="110" stroke="#3d2817" stroke-width="1" opacity="0.6"/>
  <line x1="155" y1="130" x2="200" y2="130" stroke="#3d2817" stroke-width="1" opacity="0.5"/>
  <line x1="155" y1="145" x2="200" y2="145" stroke="#3d2817" stroke-width="1" opacity="0.5"/>
  <line x1="155" y1="160" x2="197" y2="160" stroke="#3d2817" stroke-width="1" opacity="0.5"/>
  <line x1="155" y1="175" x2="193" y2="175" stroke="#3d2817" stroke-width="1" opacity="0.5"/>
  
  <!-- Украшение -->
  <circle cx="145" cy="220" r="15" fill="#ff006e" opacity="0.7"/>
  <circle cx="145" cy="220" r="8" fill="#d4af37" opacity="0.8"/>
  
  <!-- Нижняя часть -->
  <rect x="85" y="365" width="120" height="35" fill="#5a4a3a" rx="3"/>
  <text x="145" y="387" font-family="'Raleway', Arial, sans-serif" font-size="18" font-weight="bold" fill="#d4af37" text-anchor="middle">BOOK</text>
</svg>
