<svg width="350" height="450" xmlns="http://www.w3.org/2000/svg">
  <defs>
    <linearGradient id="gradFilm" x1="0%" y1="0%" x2="0%" y2="100%">
      <stop offset="0%" style="stop-color:#2c1b47;stop-opacity:1" />
      <stop offset="100%" style="stop-color:#0d0221;stop-opacity:1" />
    </linearGradient>
  </defs>
  <rect width="350" height="450" fill="url(#gradFilm)"/>
  
  <!-- Кинолента сверху -->
  <rect x="0" y="0" width="350" height="30" fill="#1a1a1a"/>
  <circle cx="20" cy="15" r="8" fill="#333"/>
  <circle cx="60" cy="15" r="8" fill="#333"/>
  <circle cx="100" cy="15" r="8" fill="#333"/>
  <circle cx="140" cy="15" r="8" fill="#333"/>
  <circle cx="180" cy="15" r="8" fill="#333"/>
  <circle cx="220" cy="15" r="8" fill="#333"/>
  <circle cx="260" cy="15" r="8" fill="#333"/>
  <circle cx="300" cy="15" r="8" fill="#333"/>
  <circle cx="340" cy="15" r="8" fill="#333"/>
  
  <!-- Кинолента снизу -->
  <rect x="0" y="420" width="350" height="30" fill="#1a1a1a"/>
  <circle cx="20" cy="435" r="8" fill="#333"/>
  <circle cx="60" cy="435" r="8" fill="#333"/>
  <circle cx="100" cy="435" r="8" fill="#333"/>
  <circle cx="140" cy="435" r="8" fill="#333"/>
  <circle cx="180" cy="435" r="8" fill="#333"/>
  <circle cx="220" cy="435" r="8" fill="#333"/>
  <circle cx="260" cy="435" r="8" fill="#333"/>
  <circle cx="300" cy="435" r="8" fill="#333"/>
  <circle cx="340" cy="435" r="8" fill="#333"/>
  
  <!-- Центральный дизайн -->
  <circle cx="175" cy="225" r="70" fill="#ff006e" opacity="0.8"/>
  <polygon points="160,210 160,240 200,225" fill="#00d4ff" opacity="0.9"/>
  
  <!-- Звезды -->
  <circle cx="80" cy="100" r="2" fill="#ffb703"/>
  <circle cx="280" cy="120" r="2" fill="#ffb703"/>
  <circle cx="100" cy="350" r="2" fill="#ffb703"/>
  <circle cx="270" cy="320" r="2" fill="#ffb703"/>
  
  <!-- Текст FILM -->
  <text x="175" y="290" font-family="'Raleway', Arial, sans-serif" font-size="32" font-weight="bold" fill="white" text-anchor="middle" opacity="0.7">FILM</text>
</svg>
