<svg viewBox="0 0 48 48" xmlns="http://www.w3.org/2000/svg">
  <rect width="48" height="48" rx="4" fill="black"/>
  <path d="M24 14c-5.5 0-10 4.5-10 10s4.5 10 10 10 10-4.5 10-10-4.5-10-10-10zm5.5 14h-2.5c-.8 0-1.2-.7-2.5-2.2-1-.9-1.5-1.2-1.8-1.2-.2 0-.4.2-.4.5v1.5c0 .4-.1.6-.6.6h-1.3c-.3 0-.5-.1-.5-.3 0-.2.3-.9 1.5-2.3 1.4-1.7 1.9-2 2.2-2 .2 0 .4.2.4.5v1.2c0 .3.1.5-.2.8-.2.2-.4.2-.7.2s-.3-.1-1.2-.7c-.7-.4-1.2-1-1.5-1.5-.2-.3-.4-.4-.7-.4h-2.3c-.3 0-.5.2-.5.6v2.5c0 .3.2.5.5.5h.8c.3 0 .5-.2.5-.5v-1.8c0-.3.1-.4.4-.4.2 0 .4.2.8.6.8.8 1.5 1.8 2 3 .2.5.5.8 1 .8h2.5c.3 0 .5-.2.4-.6-.1-.4-.4-1.2-1.3-2.3-.3-.4-.4-.6-.2-.9.1-.2.4-.4.7-.7.9-.8 1.3-1.4 1.5-1.9.1-.2-.1-.6-.4-.6z" fill="white"/>
</svg>
